<?xml version="1.0" encoding="UTF-8"?>
<svg version="1.1" xmlns="http://www.w3.org/2000/svg" width="512" height="512">
<path d="M0 0 C0.69197609 -0.00453111 1.38395218 -0.00906223 2.09689724 -0.01373065 C4.40956606 -0.02636387 6.72199904 -0.02475494 9.03469849 -0.02310181 C10.69580894 -0.02908815 12.35691661 -0.03589394 14.01802063 -0.04345703 C18.52893331 -0.06112372 23.03977009 -0.06581298 27.55071402 -0.0670886 C30.37424219 -0.06851157 33.19775117 -0.07278415 36.02127457 -0.07808304 C45.88757802 -0.09659281 55.75382746 -0.10475337 65.62014771 -0.10317993 C74.78874132 -0.10198161 83.95709834 -0.12302048 93.12563217 -0.15466726 C101.01550991 -0.18092091 108.90531091 -0.19154328 116.79523194 -0.19026911 C121.49897772 -0.1897617 126.20251372 -0.19532068 130.90621567 -0.21662521 C135.3402901 -0.2361586 139.77395811 -0.23603021 144.20804787 -0.22159195 C145.82399027 -0.21952059 147.4399591 -0.22410328 149.0558567 -0.23631287 C169.07999633 -0.3776509 187.21013221 4.94871448 201.93118286 19.06747437 C215.81851202 32.9381862 224.25294021 49.57084301 224.41373533 69.49371177 C224.40772528 70.60024657 224.40171524 71.70678137 224.39552307 72.84684753 C224.40360138 74.6594492 224.40360138 74.6594492 224.41184288 76.50866908 C224.42358811 79.82764005 224.42209242 83.14610262 224.41467607 86.46505225 C224.40991548 90.05823192 224.42247968 93.65135952 224.43269348 97.24452209 C224.44983112 104.27045761 224.45073192 111.29630348 224.44548058 118.32225446 C224.44142787 124.03742838 224.44289546 129.75257596 224.44822884 135.46774864 C224.44897726 136.28329885 224.44972568 137.09884905 224.45049678 137.9391129 C224.45202837 139.59628053 224.45356672 141.25344815 224.45511175 142.91061576 C224.46881882 158.42828508 224.46341195 173.9459039 224.45192654 189.46357205 C224.4419982 203.63381846 224.4549311 217.80393421 224.47886073 231.97416047 C224.50329319 246.55291635 224.5128493 261.13161148 224.506208 275.71038741 C224.5027247 283.88371848 224.50488873 292.05694916 224.52245903 300.23026466 C224.53723309 307.18867501 224.53774901 314.14691427 224.52038812 321.10532144 C224.51191787 324.6495616 224.50962985 328.19349682 224.52503967 331.73772049 C224.62136542 355.58061602 222.41234009 376.25229248 205.20779419 394.19076538 C191.33708235 408.07809454 174.70442555 416.51252273 154.78155679 416.67331785 C153.67502198 416.6673078 152.56848718 416.66129776 151.42842102 416.65510559 C150.22001991 416.66049113 149.0116188 416.66587667 147.76659948 416.6714254 C144.44762851 416.68317063 141.12916593 416.68167494 137.81021631 416.67425859 C134.21703664 416.669498 130.62390904 416.6820622 127.03074646 416.692276 C120.00481095 416.70941363 112.97896507 416.71031444 105.9530141 416.7050631 C100.23784017 416.70101039 94.52269259 416.70247798 88.80751991 416.70781136 C87.58419461 416.70893399 87.58419461 416.70893399 86.33615566 416.7100793 C84.67898803 416.71161089 83.02182041 416.71314924 81.36465279 416.71469427 C65.84698347 416.72840134 50.32936466 416.72299447 34.81169651 416.71150906 C20.6414501 416.70158072 6.47133434 416.71451362 -7.69889192 416.73844325 C-22.27764779 416.76287571 -36.85634293 416.77243181 -51.43511885 416.76579052 C-59.60844993 416.76230722 -67.78168061 416.76447125 -75.95499611 416.78204155 C-82.91340645 416.79681561 -89.87164571 416.79733153 -96.83005289 416.77997064 C-100.37429304 416.77150039 -103.91822826 416.76921237 -107.46245193 416.78462219 C-131.30534746 416.88094794 -151.97702392 414.67192261 -169.91549683 397.46737671 C-188.25933846 379.14548497 -193.05420308 358.64637202 -193.13879395 333.23934937 C-193.13844462 331.86312863 -193.1379832 330.48690792 -193.13742065 329.11068726 C-193.14042029 327.62762366 -193.14382464 326.14456085 -193.14759827 324.66149902 C-193.15635583 320.66992571 -193.15877273 316.67837389 -193.15941405 312.6867919 C-193.1601287 310.18673198 -193.1622707 307.68667739 -193.16491127 305.1866188 C-193.17413392 296.44776314 -193.1782496 287.70892263 -193.17745972 278.97006226 C-193.17685817 270.8493229 -193.18743298 262.72864979 -193.20320338 254.6079272 C-193.21630538 247.60970687 -193.22164257 240.61150814 -193.22100431 233.61327565 C-193.22075032 229.44473436 -193.22354732 225.2762522 -193.23418236 221.10772324 C-193.24390956 217.18911223 -193.24391107 213.27061641 -193.23666573 209.35200119 C-193.23562596 207.9210137 -193.23794632 206.49001884 -193.24402618 205.05904388 C-193.32843748 183.80246181 -193.32843748 183.80246181 -186.99215698 176.26742554 C-181.18358591 170.51417419 -176.53806805 167.98458001 -168.17965698 167.89242554 C-160.85630563 168.03002504 -156.34433094 169.07519626 -151.02731323 174.13851929 C-145.11541079 180.53401293 -143.68522925 186.08404384 -142.86715698 194.57992554 C-142.78078979 195.41588257 -142.69442261 196.2518396 -142.60543823 197.11312866 C-142.39450156 199.16390183 -142.19244053 201.21558456 -141.99215698 203.26742554 C-141.54508109 202.81666247 -141.0980052 202.36589941 -140.63738155 201.90147686 C-129.74763571 190.92331159 -118.84678643 179.9563121 -107.9335165 169.00153637 C-102.65615983 163.7035732 -97.38260169 158.401931 -92.1178894 153.09140015 C-87.52801513 148.46159959 -82.93110231 143.83892415 -78.3256765 139.22459108 C-75.88840744 136.78211709 -73.45475652 134.33627253 -71.02950859 131.88185692 C-68.31893808 129.13895462 -65.5926735 126.41198642 -62.86495972 123.68612671 C-62.06726166 122.87404755 -61.2695636 122.06196838 -60.44769287 121.22528076 C-54.14485371 114.96864694 -49.22378551 111.84023952 -40.05465698 111.82992554 C-38.91125854 111.8105896 -37.76786011 111.79125366 -36.58981323 111.77133179 C-27.80987572 112.98202893 -22.44743152 118.23847817 -16.47531128 124.30325317 C-15.65584896 125.11929779 -14.83638664 125.93534241 -13.99209213 126.77611566 C-11.73393497 129.02884626 -9.48493073 131.29026389 -7.23957705 133.55574298 C-4.81070272 136.00195822 -2.37020932 138.43653433 0.06886292 140.87257385 C4.28836369 145.08998145 8.50050295 149.31462643 12.70767212 153.54433441 C18.7904657 159.65969363 24.88432919 165.76392317 30.98091483 171.86552909 C40.87289964 181.76625939 50.75592648 191.67588158 60.6333313 201.59115601 C70.22596253 211.22052663 79.8228033 220.84566973 89.42532349 230.46517944 C90.01763382 231.05854067 90.60994415 231.6519019 91.22020328 232.26324376 C94.19179944 235.24006023 97.16347843 238.21679401 100.13519859 241.19348669 C124.77226662 265.87199353 149.39480161 290.56495663 174.00784302 315.26742554 C174.09911868 283.68249249 174.16989474 252.09759701 174.21210434 220.51256287 C174.21710708 216.78257547 174.22228438 213.05258833 174.22756958 209.32260132 C174.22861882 208.58003672 174.22966806 207.83747213 174.2307491 207.07240558 C174.24814824 195.05326347 174.27968321 183.03419798 174.3164542 171.01510131 C174.35387732 158.6798521 174.37608176 146.34464298 174.384197 134.00933933 C174.38968194 126.39946262 174.40699752 118.78980252 174.43950889 111.1799925 C174.46317783 105.34205665 174.46565938 99.50423162 174.46027374 93.66624641 C174.4613742 91.27333302 174.46933094 88.88041143 174.48466492 86.48754692 C174.5045838 83.21888516 174.49977447 79.95114803 174.48886108 76.6824646 C174.50051245 75.73692121 174.51216382 74.79137781 174.52416825 73.81718159 C174.47551307 68.42092555 173.68061716 64.6373057 170.96358848 59.94424057 C170.00784302 58.26742554 170.00784302 58.26742554 169.00784302 55.26742554 C167.31015067 54.1657357 167.31015067 54.1657357 165.00784302 53.26742554 C163.89409302 52.75180054 162.78034302 52.23617554 161.63284302 51.70492554 C156.16697075 49.53742446 151.14985025 49.14247848 145.30389404 49.13612366 C144.6551272 49.13400794 144.00636035 49.13189223 143.3379339 49.1297124 C141.17791886 49.12375158 139.0179629 49.12470973 136.85794067 49.12557983 C135.30355226 49.12254576 133.74916474 49.11902362 132.19477844 49.11505127 C128.85379565 49.10718149 125.51282344 49.10202464 122.17183304 49.0987606 C116.88474536 49.09283435 111.59772441 49.07627922 106.31066895 49.05741882 C104.4982777 49.05108202 102.68588642 49.04475639 100.8734951 49.03844166 C99.51232948 49.03369294 99.51232948 49.03369294 98.12366557 49.02884829 C85.82042131 48.98681939 73.51720902 48.95379227 61.21389771 48.9414978 C52.90677158 48.93311154 44.59981176 48.91060289 36.29276884 48.87214214 C31.90059334 48.85240631 27.5086663 48.83996881 23.11644363 48.84497643 C18.98436499 48.84963049 14.85275741 48.83577645 10.7207737 48.80796432 C9.2083408 48.80106621 7.69585905 48.80091112 6.18342781 48.8081646 C-2.98541509 48.8476818 -10.030053 48.61575011 -17.23434448 42.30258179 C-17.77317261 41.65160522 -18.31200073 41.00062866 -18.86715698 40.32992554 C-19.42145386 39.6815271 -19.97575073 39.03312866 -20.54684448 38.36508179 C-25.02627795 31.86384997 -24.66679427 24.89601637 -23.99215698 17.26742554 C-22.31130116 10.6078322 -17.52837376 6.08195107 -11.99215698 2.26742554 C-7.89738363 0.26376357 -4.53580929 0.01229069 0 0 Z M-45.10498047 174.62159729 C-45.96600687 175.36839941 -46.82703327 176.11520153 -47.71415138 176.88463402 C-48.6607028 177.71760317 -49.60725422 178.55057232 -50.58248901 179.40878296 C-51.07366549 179.83945045 -51.56484197 180.27011794 -52.07090259 180.71383595 C-65.6911369 192.66591324 -78.98168839 204.97370364 -92.11715698 217.45492554 C-93.02462756 218.31568491 -93.02462756 218.31568491 -93.95043087 219.19383335 C-134.21531258 255.45612614 -134.21531258 255.45612614 -150.36902046 304.98022938 C-150.34611739 309.22655191 -150.03873985 313.41875938 -149.61715698 317.64242554 C-149.53811378 318.4595892 -149.45907059 319.27675285 -149.37763214 320.11867905 C-147.7705803 335.518088 -145.57412729 353.58684895 -132.94137573 363.86117554 C-125.86536839 368.9661107 -117.3236688 368.41359758 -108.97137451 368.40113831 C-107.30182872 368.40453664 -107.30182872 368.40453664 -105.59855473 368.40800363 C-101.86760301 368.41433573 -98.1366877 368.41351478 -94.4057312 368.41268921 C-91.731566 368.4156811 -89.05740366 368.41905535 -86.38323975 368.42286682 C-79.8735504 368.43116431 -73.36387011 368.43392121 -66.85417591 368.4344792 C-61.56449655 368.43495458 -56.27482017 368.43701043 -50.98514175 368.44017982 C-35.98904406 368.44898225 -20.99295351 368.45359959 -5.99685322 368.45284935 C-4.78482399 368.45278942 -4.78482399 368.45278942 -3.54830933 368.45272827 C-2.33480188 368.45266695 -2.33480188 368.45266695 -1.09677912 368.45260439 C12.02719818 368.45219755 25.15114685 368.46177767 38.27511586 368.47586664 C51.74959504 368.49021791 65.22406023 368.49713758 78.69854724 368.49627286 C86.26405159 368.49594056 93.82952588 368.49870223 101.39502335 368.50945091 C107.83306222 368.51853927 114.2710574 368.52074475 120.7090999 368.51394149 C123.99465488 368.51066844 127.28010816 368.5117272 130.56565857 368.51929474 C134.12419098 368.5269624 137.68250054 368.52240465 141.24102783 368.5146637 C142.80491861 368.52237904 142.80491861 368.52237904 144.40040314 368.53025025 C145.35215074 368.52565146 146.30389834 368.52105266 147.28448677 368.51631451 C148.10598689 368.51653187 148.92748701 368.51674924 149.77388108 368.5169732 C152.2384573 368.24166447 153.87342144 367.49996395 156.00784302 366.26742554 C131.20588611 341.41973498 106.39869613 316.57728174 81.58443097 291.74188283 C78.65782197 288.81277229 75.73125654 285.88361822 72.80471802 282.95443726 C71.93075013 282.07968244 71.93075013 282.07968244 71.03912632 281.1872558 C61.5933268 271.73274318 52.15106426 262.27470571 42.71009405 252.81537098 C33.02957023 243.11617323 23.34527857 233.42074969 13.65744627 223.7288518 C7.67507753 217.74373278 1.69570087 211.75565591 -4.27993502 205.76381457 C-8.37264009 201.66057353 -12.46898452 197.56098965 -16.56826352 193.46431625 C-18.9365857 191.09728066 -21.30265483 188.72810062 -23.6655407 186.35563087 C-26.2220335 183.78927332 -28.78452167 181.22906086 -31.34869385 178.67037964 C-32.10160308 177.91164472 -32.85451232 177.1529098 -33.63023698 176.37118292 C-34.31348122 175.69192078 -34.99672545 175.01265864 -35.70067406 174.31281281 C-36.29227833 173.72044909 -36.88388261 173.12808537 -37.49341428 172.51777124 C-40.70692791 169.83685545 -42.43190018 172.29823086 -45.10498047 174.62159729 Z " fill="#702CC0" transform="translate(287.9921569824219,95.73257446289063)"/>
<path d="M0 0 C8.8691345 5.74140916 12.3471612 13.82708532 15.75 23.5 C16.2069557 24.75821789 16.66573694 26.0157741 17.1262207 27.27270508 C18.10080379 29.93776754 19.06652898 32.60582419 20.02734375 35.27587891 C21.62055727 39.68362366 23.27415304 44.0675411 24.9375 48.44921875 C25.35422722 49.54884445 25.35422722 49.54884445 25.77937317 50.67068481 C26.87305666 53.55652864 27.96700983 56.44226881 29.06259155 59.32739258 C29.81978835 61.3251008 30.57258139 63.32441335 31.32421875 65.32421875 C31.75694092 66.46979248 32.18966309 67.61536621 32.63549805 68.7956543 C33.5625 71.5 33.5625 71.5 33.5625 73.5 C34.14606262 73.66657608 34.72962524 73.83315216 35.33087158 74.004776 C42.15797367 75.99794828 48.8175763 78.33631239 55.484375 80.80859375 C57.13980316 81.42058372 57.13980316 81.42058372 58.82867432 82.04493713 C61.14536962 82.90300166 63.46142168 83.76280473 65.77685547 84.62426758 C69.31320901 85.93776334 72.85374548 87.23952303 76.39453125 88.54101562 C78.65391215 89.37949106 80.91303585 90.21865995 83.171875 91.05859375 C84.22509949 91.44413925 85.27832397 91.82968475 86.36346436 92.22691345 C93.13919769 94.76634629 99.05221557 97.27485396 103.8125 102.9375 C104.29203125 103.49308594 104.7715625 104.04867187 105.265625 104.62109375 C109.66220307 110.99083487 109.22132148 118.05024939 108.5625 125.5 C106.86904596 132.20950776 102.07956555 136.61764054 96.5625 140.5 C92.34579654 142.57119221 87.99076605 144.12967839 83.5625 145.6875 C82.30428211 146.1444557 81.0467259 146.60323694 79.78979492 147.0637207 C77.12473246 148.03830379 74.45667581 149.00402898 71.78662109 149.96484375 C67.37887634 151.55805727 62.9949589 153.21165304 58.61328125 154.875 C57.88019745 155.15281815 57.14711365 155.43063629 56.39181519 155.71687317 C53.50597136 156.81055666 50.62023119 157.90450983 47.73510742 159.00009155 C45.7373992 159.75728835 43.73808665 160.51008139 41.73828125 161.26171875 C40.59270752 161.69444092 39.44713379 162.12716309 38.2668457 162.57299805 C35.5625 163.5 35.5625 163.5 33.5625 163.5 C33.39592392 164.08356262 33.22934784 164.66712524 33.057724 165.26837158 C31.06455172 172.09547367 28.72618761 178.7550763 26.25390625 185.421875 C25.64191628 187.07730316 25.64191628 187.07730316 25.01756287 188.76617432 C24.15949834 191.08286962 23.29969527 193.39892168 22.43823242 195.71435547 C21.12473666 199.25070901 19.82297697 202.79124548 18.52148438 206.33203125 C17.68300894 208.59141215 16.84384005 210.85053585 16.00390625 213.109375 C15.61836075 214.16259949 15.23281525 215.21582397 14.83558655 216.30096436 C12.29615371 223.07669769 9.78764604 228.98971557 4.125 233.75 C3.29162109 234.46929687 3.29162109 234.46929687 2.44140625 235.203125 C-3.92833487 239.59970307 -10.98774939 239.15882148 -18.4375 238.5 C-25.14700776 236.80654596 -29.55514054 232.01706555 -33.4375 226.5 C-35.50869221 222.28329654 -37.06717839 217.92826605 -38.625 213.5 C-39.0819557 212.24178211 -39.54073694 210.9842259 -40.0012207 209.72729492 C-40.97580379 207.06223246 -41.94152898 204.39417581 -42.90234375 201.72412109 C-44.49555727 197.31637634 -46.14915304 192.9324589 -47.8125 188.55078125 C-48.09031815 187.81769745 -48.36813629 187.08461365 -48.65437317 186.32931519 C-49.74805666 183.44347136 -50.84200983 180.55773119 -51.93759155 177.67260742 C-52.69478835 175.6748992 -53.44758139 173.67558665 -54.19921875 171.67578125 C-54.848302 169.95742065 -54.848302 169.95742065 -55.51049805 168.2043457 C-56.4375 165.5 -56.4375 165.5 -56.4375 163.5 C-57.31284393 163.25013588 -57.31284393 163.25013588 -58.20587158 162.995224 C-65.03297367 161.00205172 -71.6925763 158.66368761 -78.359375 156.19140625 C-79.46299377 155.78341293 -80.56661255 155.37541962 -81.70367432 154.95506287 C-84.02036962 154.09699834 -86.33642168 153.23719527 -88.65185547 152.37573242 C-92.18820901 151.06223666 -95.72874548 149.76047697 -99.26953125 148.45898438 C-101.52891215 147.62050894 -103.78803585 146.78134005 -106.046875 145.94140625 C-107.10009949 145.55586075 -108.15332397 145.17031525 -109.23846436 144.77308655 C-116.01419769 142.23365371 -121.92721557 139.72514604 -126.6875 134.0625 C-127.16703125 133.50691406 -127.6465625 132.95132813 -128.140625 132.37890625 C-132.53720307 126.00916513 -132.09632148 118.94975061 -131.4375 111.5 C-129.74404596 104.79049224 -124.95456555 100.38235946 -119.4375 96.5 C-115.22079654 94.42880779 -110.86576605 92.87032161 -106.4375 91.3125 C-105.17928211 90.8555443 -103.9217259 90.39676306 -102.66479492 89.9362793 C-99.99973246 88.96169621 -97.33167581 87.99597102 -94.66162109 87.03515625 C-90.25387634 85.44194273 -85.8699589 83.78834696 -81.48828125 82.125 C-80.38865555 81.70827278 -80.38865555 81.70827278 -79.26681519 81.28312683 C-76.38097136 80.18944334 -73.49523119 79.09549017 -70.61010742 77.99990845 C-68.6123992 77.24271165 -66.61308665 76.48991861 -64.61328125 75.73828125 C-63.46770752 75.30555908 -62.32213379 74.87283691 -61.1418457 74.42700195 C-58.4375 73.5 -58.4375 73.5 -56.4375 73.5 C-56.27092392 72.91643738 -56.10434784 72.33287476 -55.932724 71.73162842 C-53.93955172 64.90452633 -51.60118761 58.2449237 -49.12890625 51.578125 C-48.72091293 50.47450623 -48.31291962 49.37088745 -47.89256287 48.23382568 C-47.03449834 45.91713038 -46.17469527 43.60107832 -45.31323242 41.28564453 C-43.99973666 37.74929099 -42.69797697 34.20875452 -41.39648438 30.66796875 C-40.55800894 28.40858785 -39.71884005 26.14946415 -38.87890625 23.890625 C-38.49336075 22.83740051 -38.10781525 21.78417603 -37.71058655 20.69903564 C-35.17115371 13.92330231 -32.66264604 8.01028443 -27 3.25 C-26.44441406 2.77046875 -25.88882813 2.2909375 -25.31640625 1.796875 C-18.36691105 -2.99986597 -7.67893419 -3.40282182 0 0 Z M-12.4375 94.5 C-12.77523437 95.31984375 -13.11296875 96.1396875 -13.4609375 96.984375 C-13.90695313 98.06203125 -14.35296875 99.1396875 -14.8125 100.25 C-15.25335938 101.31734375 -15.69421875 102.3846875 -16.1484375 103.484375 C-16.57382813 104.47953125 -16.99921875 105.4746875 -17.4375 106.5 C-17.73914063 107.24765625 -18.04078125 107.9953125 -18.3515625 108.765625 C-19.7724658 111.03498135 -20.96178511 111.5011771 -23.4375 112.5 C-24.43265625 112.92539063 -25.4278125 113.35078125 -26.453125 113.7890625 C-27.52046875 114.22992188 -28.5878125 114.67078125 -29.6875 115.125 C-30.76515625 115.57101563 -31.8428125 116.01703125 -32.953125 116.4765625 C-33.77296875 116.81429687 -34.5928125 117.15203125 -35.4375 117.5 C-35.4375 118.16 -35.4375 118.82 -35.4375 119.5 C-34.20773438 120.00660156 -34.20773438 120.00660156 -32.953125 120.5234375 C-31.87546875 120.96945313 -30.7978125 121.41546875 -29.6875 121.875 C-28.62015625 122.31585938 -27.5528125 122.75671875 -26.453125 123.2109375 C-25.45796875 123.63632813 -24.4628125 124.06171875 -23.4375 124.5 C-22.68984375 124.80164063 -21.9421875 125.10328125 -21.171875 125.4140625 C-18.90251865 126.8349658 -18.4363229 128.02428511 -17.4375 130.5 C-17.01210937 131.49515625 -16.58671875 132.4903125 -16.1484375 133.515625 C-15.70757812 134.58296875 -15.26671875 135.6503125 -14.8125 136.75 C-14.36648437 137.82765625 -13.92046875 138.9053125 -13.4609375 140.015625 C-13.12320313 140.83546875 -12.78546875 141.6553125 -12.4375 142.5 C-11.7775 142.5 -11.1175 142.5 -10.4375 142.5 C-10.09976563 141.68015625 -9.76203125 140.8603125 -9.4140625 140.015625 C-8.96804687 138.93796875 -8.52203125 137.8603125 -8.0625 136.75 C-7.62164062 135.68265625 -7.18078125 134.6153125 -6.7265625 133.515625 C-6.30117187 132.52046875 -5.87578125 131.5253125 -5.4375 130.5 C-5.13585937 129.75234375 -4.83421875 129.0046875 -4.5234375 128.234375 C-3.1025342 125.96501865 -1.91321489 125.4988229 0.5625 124.5 C1.55765625 124.07460937 2.5528125 123.64921875 3.578125 123.2109375 C4.64546875 122.77007812 5.7128125 122.32921875 6.8125 121.875 C7.89015625 121.42898437 8.9678125 120.98296875 10.078125 120.5234375 C10.89796875 120.18570313 11.7178125 119.84796875 12.5625 119.5 C12.5625 118.84 12.5625 118.18 12.5625 117.5 C11.74265625 117.16226563 10.9228125 116.82453125 10.078125 116.4765625 C9.00046875 116.03054687 7.9228125 115.58453125 6.8125 115.125 C5.74515625 114.68414062 4.6778125 114.24328125 3.578125 113.7890625 C2.58296875 113.36367187 1.5878125 112.93828125 0.5625 112.5 C-0.18515625 112.19835937 -0.9328125 111.89671875 -1.703125 111.5859375 C-3.97248135 110.1650342 -4.4386771 108.97571489 -5.4375 106.5 C-5.86289063 105.50484375 -6.28828125 104.5096875 -6.7265625 103.484375 C-7.16742188 102.41703125 -7.60828125 101.3496875 -8.0625 100.25 C-8.50851563 99.17234375 -8.95453125 98.0946875 -9.4140625 96.984375 C-9.75179687 96.16453125 -10.08953125 95.3446875 -10.4375 94.5 C-11.0975 94.5 -11.7575 94.5 -12.4375 94.5 Z " fill="#BC37C7" transform="translate(131.4375,1.5)"/>
<path d="M0 0 C9.04841654 6.67794814 16.05564357 16.07389416 18.234375 27.23828125 C19.74505854 42.55667843 17.92956509 54.39401256 8.3671875 66.796875 C1.98216452 74.1057383 -8.00400388 80.51986524 -17.84936523 81.43115234 C-32.83629436 81.97385909 -44.74277167 80.69762163 -56.546875 70.46484375 C-66.02135021 60.95700771 -70.12222088 50.63484959 -70.328125 37.36328125 C-70.20966256 24.17853351 -66.20987236 13.6493909 -56.765625 4.23828125 C-40.72073785 -9.62108971 -17.96668118 -11.44487742 0 0 Z " fill="#9932C4" transform="translate(405.765625,182.76171875)"/>
<path d="M0 0 C8.34468007 4.97590182 13.53387008 11.86345977 16.109375 21.2578125 C17.10789012 32.35758522 16.45884702 41.9922991 9.359375 51.0703125 C3.68970122 57.1408723 -3.36319277 60.85433149 -11.66015625 61.59375 C-19.4412515 61.76746925 -26.16911331 61.58646603 -32.890625 57.2578125 C-33.59703125 56.82210937 -34.3034375 56.38640625 -35.03125 55.9375 C-41.93709584 51.25687115 -45.68778524 45.25759899 -47.890625 37.2578125 C-48.88914012 26.15803978 -48.24009702 16.5233259 -41.140625 7.4453125 C-30.84272373 -3.5807232 -13.59449082 -6.52353083 0 0 Z " fill="#DB3CCA" transform="translate(223.890625,2.7421875)"/>
</svg>
